<?xml version="1.0" standalone="no"?>
<!DOCTYPE svg PUBLIC "-//W3C//DTD SVG 20010904//EN"
 "http://www.w3.org/TR/2001/REC-SVG-20010904/DTD/svg10.dtd">
<svg version="1.0" xmlns="http://www.w3.org/2000/svg"
 width="256.000000pt" height="256.000000pt" viewBox="0 0 256.000000 256.000000"
 preserveAspectRatio="xMidYMid meet">
<metadata>
Created by potrace 1.14, written by Peter Selinger 2001-2017
</metadata>
<g transform="translate(0.000000,256.000000) scale(0.100000,-0.100000)"
fill="#000000" stroke="none">
<path d="M1065 2534 c-262 -47 -482 -160 -665 -344 -53 -52 -103 -105 -113
-118 -135 -175 -217 -365 -255 -587 -12 -68 -7 -376 7 -440 38 -179 97 -324
187 -460 49 -73 152 -196 197 -234 11 -9 33 -29 50 -44 97 -86 267 -178 414
-226 137 -44 214 -55 383 -56 180 0 232 6 358 40 346 93 640 338 798 665 40
82 84 203 90 245 2 11 9 55 17 98 18 101 19 320 2 422 -47 274 -155 485 -350
680 -110 110 -123 121 -199 170 -138 88 -266 142 -421 177 -116 26 -382 32
-500 12z"/>
</g>
</svg>
